<svg height="200px" viewBox="-68 0 512 512" width="200px" xmlns="http://www.w3.org/2000/svg"><path d="m274.570312 7.5h-267.070312v497h360v-404.070312zm0 0" fill="#e5ebf5"/><path d="m7.5 7.5h30v497h-30zm0 0" fill="#cad8ea"/><path d="m274.570312 100.429688h92.929688l-92.929688-92.929688zm0 0" fill="#cad8ea"/><path d="m207.5 45h-15v-15h15zm-25 0h-15v-15h15zm0 0" fill="#fff"/><path d="m267.070312 37.5v70.429688h70.429688v-15h-55.429688v-55.429688zm0 0"/><path d="m277.679688 0h-277.679688v512h375v-414.679688zm82.320312 497h-345v-482h256.464844l88.535156 88.535156zm0 0"/></svg>