<?xml version="1.0" encoding="iso-8859-1"?>
<!-- Generator: Adobe Illustrator 19.0.0, SVG Export Plug-In . SVG Version: 6.00 Build 0)  -->
<svg version="1.1" id="Capa_1" xmlns="http://www.w3.org/2000/svg" xmlns:xlink="http://www.w3.org/1999/xlink" x="0px" y="0px" height="200px" width="200px"
	 viewBox="0 0 511.998 511.998" style="enable-background:new 0 0 511.998 511.998;" xml:space="preserve">
<g>
	<g>
		<path style="fill:#00A2BB;" d="M152.109,292.03l61.791,6.061l-1.892-19.274l26.966-59.741l-99.639,29.739
			c-17.068-24.436-48.461-36.373-78.586-27.382c-37.606,11.225-58.993,50.81-47.77,88.416c11.225,37.607,50.811,58.993,88.417,47.77
			C131.392,348.666,151.068,321.671,152.109,292.03L152.109,292.03z M63.916,273.787c9.763-9.763,25.592-9.764,35.354,0
			c9.763,9.763,9.763,25.592,0,35.354c-9.763,9.763-25.592,9.763-35.354,0C54.152,299.379,54.152,283.55,63.916,273.787z"/>
		<polygon style="fill:#00A2BB;" points="315.866,196.126 292.916,273.017 489.628,184.23 501.994,140.572 		"/>
	</g>
	<path style="fill:#66E2E7;" d="M292.916,273.017l22.95-76.892L371.42,9.998l-43.658,12.366l-88.787,196.711l-26.966,59.741
		l1.892,19.274l6.063,61.792c-29.642,1.042-56.637,20.717-65.59,50.712c-11.224,37.606,10.163,77.192,47.77,88.417
		c37.606,11.223,77.192-10.164,88.417-47.77c8.991-30.125-2.947-61.517-27.383-78.586L292.916,273.017L292.916,273.017z
		 M240.135,413.269c9.763,9.762,9.763,25.592,0.001,35.354c-9.764,9.763-25.593,9.763-35.355,0c-9.763-9.763-9.763-25.592,0-35.354
		C214.544,403.506,230.373,403.506,240.135,413.269z"/>
</g>
<path d="M81.593,256.465c-9.349,0-18.138,3.641-24.748,10.251c-6.611,6.61-10.252,15.399-10.252,24.748s3.641,18.139,10.251,24.748
	c6.61,6.611,15.4,10.251,24.749,10.251s18.138-3.641,24.748-10.251c6.61-6.61,10.251-15.399,10.251-24.749
	c0-9.349-3.641-18.138-10.25-24.747C99.731,260.106,90.942,256.465,81.593,256.465z M92.199,302.071
	c-2.833,2.833-6.6,4.393-10.606,4.393c-4.006,0-7.773-1.56-10.607-4.394c-2.833-2.832-4.393-6.599-4.393-10.605
	s1.56-7.772,4.394-10.606c2.833-2.833,6.6-4.394,10.606-4.394c4.006,0,7.773,1.56,10.606,4.394
	c2.833,2.832,4.393,6.599,4.393,10.605C96.592,295.471,95.032,299.237,92.199,302.071z"/>
<path d="M509.015,133.452c-2.598-2.561-6.386-3.505-9.882-2.461l-168.392,50.26l50.261-168.392c1.044-3.496,0.101-7.283-2.462-9.881
	c-2.561-2.597-6.331-3.593-9.846-2.601l-43.658,12.366c-2.838,0.804-5.176,2.819-6.389,5.508L231.738,210.8l-88.673,26.466
	c-20.645-24.538-53.972-34.731-85.176-25.415C15.06,224.634-9.385,269.879,3.398,312.709c10.484,35.126,42.802,57.886,77.716,57.886
	c7.657,0,15.439-1.095,23.143-3.394c29.942-8.937,51.731-34.055,56.782-64.247l43.711,4.289l4.289,43.71
	c-30.192,5.05-55.311,26.839-64.249,56.782c-12.783,42.83,11.663,88.075,54.492,100.858c7.569,2.259,15.379,3.405,23.212,3.405
	c17.091,0,34.128-5.596,47.974-15.756c14.32-10.508,24.581-25.08,29.673-42.14c9.313-31.204-0.878-64.531-25.416-85.176
	l26.466-88.672l192.551-86.909c2.688-1.213,4.703-3.551,5.507-6.389l12.366-43.657C512.61,139.787,511.613,136.014,509.015,133.452z
	 M153.086,282.077c-2.749-0.268-5.485,0.609-7.563,2.427s-3.311,4.414-3.408,7.173c-0.921,26.205-18.434,48.854-43.578,56.358
	c-32.266,9.629-66.346-8.786-75.975-41.047c-9.628-32.263,8.785-66.344,41.048-75.974c25.29-7.549,52.427,1.906,67.527,23.526
	c2.47,3.535,6.929,5.088,11.058,3.855l78.656-23.477l-17.956,39.783c-0.72,1.594-1.009,3.349-0.838,5.09l0.702,7.158
	L153.086,282.077z M257.45,380.853c21.62,15.102,31.075,42.24,23.527,67.528c-7.665,25.68-31.714,43.616-58.483,43.616
	c-5.895,0-11.78-0.865-17.492-2.569c-32.262-9.629-50.676-43.711-41.047-75.974c7.505-25.145,30.154-42.658,56.359-43.579
	c2.759-0.097,5.356-1.33,7.174-3.408c0.972-1.11,1.665-2.411,2.068-3.798c0.146-0.29,0.284-0.585,0.404-0.893l23.889-61.474
	c2-5.148-0.551-10.942-5.699-12.943c-5.149-2.003-10.943,0.551-12.943,5.699l-9.383,24.145l-3.601-36.707
	c-0.002-0.016,0.002,0.016,0,0l0,0l112.74-249.779l21.669-6.138l0,0c-0.002,0.005,0.001-0.004,0,0L253.594,369.796
	C252.361,373.927,253.915,378.384,257.45,380.853z M481.274,177.029L308.76,254.895l15.142-50.731l163.51-48.802L481.274,177.029z"
	/>
<path d="M222.458,395.947c-9.349,0-18.138,3.64-24.748,10.251c-6.611,6.61-10.251,15.399-10.251,24.748s3.64,18.138,10.251,24.748
	c6.61,6.611,15.399,10.251,24.748,10.251s18.138-3.64,24.749-10.251c13.645-13.646,13.645-35.85-0.001-49.497
	C240.596,399.587,231.807,395.947,222.458,395.947z M233.066,441.552c-2.834,2.833-6.601,4.394-10.607,4.394
	s-7.773-1.561-10.607-4.393c-2.832-2.833-4.393-6.6-4.393-10.606c0-4.006,1.561-7.773,4.393-10.606
	c2.833-2.833,6.6-4.393,10.607-4.393c4.007,0,7.774,1.56,10.607,4.393C238.913,426.188,238.913,435.704,233.066,441.552z"/>
<path d="M264.616,272.591l0.117-0.302c1.997-5.149-0.559-10.942-5.708-12.938c-5.151-1.997-10.943,0.559-12.939,5.709l-0.117,0.302
	c-1.997,5.149,0.56,10.942,5.709,12.938c1.188,0.46,2.41,0.679,3.612,0.679C259.298,278.979,263.081,276.552,264.616,272.591z"/>
<g>
</g>
<g>
</g>
<g>
</g>
<g>
</g>
<g>
</g>
<g>
</g>
<g>
</g>
<g>
</g>
<g>
</g>
<g>
</g>
<g>
</g>
<g>
</g>
<g>
</g>
<g>
</g>
<g>
</g>
</svg>
